<svg width="50" height="50" viewBox="0 0 50 50" fill="none" xmlns="http://www.w3.org/2000/svg">
<rect width="50" height="50" rx="12" fill="url(#paint0_linear)"/>
<path d="M33.8495 26.6453L35.8472 27.7984C36.0753 27.9301 36.1812 28.2024 36.103 28.454C35.5841 30.1247 34.6982 31.6341 33.5395 32.8877C33.4528 32.9816 33.3367 33.0431 33.2104 33.0623C33.084 33.0815 32.9549 33.0572 32.8442 32.9933L30.8481 31.8405C30.0083 32.5601 29.0427 33.1183 28 33.4872V35.7926C28 35.9204 27.9565 36.0445 27.8766 36.1443C27.7967 36.2442 27.6853 36.3138 27.5605 36.3419C25.9219 36.7098 24.1621 36.7289 22.4409 36.3422C22.1835 36.2844 22.0001 36.0564 22.0001 35.7927V33.4872C20.9574 33.1183 19.9919 32.5601 19.152 31.8405L17.1559 32.9933C17.0452 33.0572 16.9161 33.0815 16.7897 33.0623C16.6634 33.0431 16.5474 32.9816 16.4606 32.8877C15.302 31.6341 14.416 30.1247 13.8971 28.454C13.819 28.2024 13.9248 27.9301 14.153 27.7984L16.1507 26.6453C15.95 25.5577 15.95 24.4424 16.1507 23.3548L14.153 22.2017C13.9249 22.07 13.819 21.7977 13.8971 21.5461C14.416 19.8754 15.302 18.366 16.4607 17.1124C16.5474 17.0186 16.6635 16.957 16.7898 16.9378C16.9161 16.9186 17.0453 16.9429 17.1559 17.0068L19.1521 18.1597C19.9919 17.44 20.9575 16.8818 22.0001 16.5129V14.2075C22.0001 14.0796 22.0437 13.9556 22.1235 13.8557C22.2034 13.7559 22.3149 13.6862 22.4397 13.6582C24.0782 13.2902 25.8381 13.2712 27.5593 13.6579C27.8167 13.7157 28.0001 13.9436 28.0001 14.2074V16.5129C29.0428 16.8817 30.0083 17.44 30.8482 18.1596L32.8443 17.0067C32.955 16.9428 33.0841 16.9185 33.2104 16.9377C33.3368 16.9569 33.4528 17.0185 33.5395 17.1124C34.6982 18.366 35.5842 19.8754 36.1031 21.5461C36.1812 21.7976 36.0753 22.0699 35.8472 22.2016L33.8495 23.3547C34.0502 24.4424 34.0502 25.5576 33.8495 26.6453ZM28.7501 25C28.7501 22.9323 27.0678 21.25 25.0001 21.25C22.9323 21.25 21.2501 22.9323 21.2501 25C21.2501 27.0678 22.9323 28.75 25.0001 28.75C27.0678 28.75 28.7501 27.0678 28.7501 25Z" fill="white"/>
<defs>
<linearGradient id="paint0_linear" x1="0" y1="0" x2="59.9141" y2="30.5684" gradientUnits="userSpaceOnUse">
<stop stop-color="#3672F8"/>
<stop offset="1" stop-color="#B01EFF"/>
</linearGradient>
</defs>
</svg>
